<?xml version="1.0" encoding="UTF-8" standalone="no"?>
<svg width="436px" height="168px" viewBox="0 0 436 168" version="1.1" xmlns="http://www.w3.org/2000/svg" xmlns:xlink="http://www.w3.org/1999/xlink">
    <!-- Generator: Sketch 46.2 (44496) - http://www.bohemiancoding.com/sketch -->
    <title>pixl8-logo(white).svg</title>
    <desc>Created with Sketch.</desc>
    <defs></defs>
    <g id="logos" stroke="none" stroke-width="1" fill="none" fill-rule="evenodd">
        <g id="pixl8-logo(white).svg" fill="#FFFFFF">
            <path d="M108.067222,73.3231043 C105.871025,72.7289688 101.574418,72.4330706 95.1808636,72.4330706 L74.1686903,72.4330706 L74.1686903,107.899919 L95.4739977,107.899919 C111.531744,107.899919 119.561771,101.865 119.561771,89.7951603 C119.561771,85.8888363 118.561191,82.4129097 116.560032,79.3697196 C114.557718,76.327699 111.727936,74.31372 108.067222,73.3231043 Z M95.2547241,122.961488 L74.1686903,122.961488 L74.1686903,161.321823 C73.6308931,165.328729 71.2142681,167.332182 66.9199694,167.332182 C65.064223,167.332182 63.0630636,166.787168 60.9164913,165.699479 C58.3290638,164.414135 57.1565275,162.905405 57.4023447,161.17329 L57.4023447,57.3703322 L94.0094814,57.3703322 C100.989304,57.3703322 106.50461,57.717691 110.556553,58.4088998 C121.489069,60.2895492 129.103631,65.5817994 133.400238,74.2879898 C135.643752,78.8399098 136.767817,83.859653 136.767817,89.3495586 C136.767817,111.757122 122.930504,122.961488 95.2547241,122.961488 Z M158.146985,167.554398 C152.582054,167.554398 149.799589,165.699479 149.799589,161.989641 L149.799589,63.0099412 C149.799589,60.7831027 150.872875,59.0533263 153.021755,57.8159338 C154.778252,56.8767787 156.729786,56.4054468 158.878666,56.4054468 C164.003896,56.4054468 166.565934,58.6077247 166.565934,63.0099412 L166.565934,161.989641 C166.565934,165.699479 163.759233,167.554398 158.146985,167.554398 Z M268.03764,167.025758 C266.374623,167.57545 264.688525,167.851466 262.978192,167.851466 C257.992604,167.851466 254.32612,166.127538 251.97874,162.67968 L224.424137,122.69132 L196.307502,162.372087 C193.864333,165.826961 190.054744,167.554398 184.877581,167.554398 C179.356505,167.554398 176.597121,165.971986 176.597121,162.805993 C176.597121,162.064493 176.791005,161.422405 177.182235,160.877391 L215.018457,109.561861 L181.890845,62.621648 C181.582708,62.179555 181.429217,61.7105622 181.429217,61.2158392 C181.429217,59.7854696 182.624834,58.5773161 185.017224,57.5890396 C186.920287,56.8498789 188.725254,56.4802985 190.434434,56.4802985 C195.119963,56.4802985 198.585638,58.0381499 200.831461,61.1550221 L225.43972,95.0008632 L251.939501,59.9714294 C253.794094,57.4954749 257.160519,56.2580825 262.041086,56.2580825 C267.3602,56.2580825 270.020334,57.4674055 270.020334,59.8883907 C270.020334,60.4825262 269.821834,61.0006405 269.424833,61.443903 L234.423009,108.695219 L271.704124,161.248141 C272.044575,161.848125 272.216531,162.398986 272.216531,162.899557 C272.216531,164.800089 270.822413,166.175489 268.03764,167.025758 Z M348.067857,166.145081 L284.150781,166.145081 L284.150781,63.7514411 C284.150781,61.576063 285.199832,59.8685083 287.299087,58.6322854 C289.007112,57.6931302 290.910176,57.2217983 293.010585,57.2217983 C298.281228,57.2217983 300.917127,59.3995155 300.917127,63.7514411 L300.917127,151.082342 L348.067857,151.082342 C352.314839,151.082342 354.43833,153.753613 354.43833,159.096154 C354.43833,163.796608 352.314839,166.145081 348.067857,166.145081 Z M425.310993,159.31837 C418.623151,165.106513 409.959539,168 399.319003,168 C388.629996,168 379.916759,165.057392 373.181599,159.169837 C366.200623,153.037844 362.711866,144.701234 362.711866,134.165854 C362.711866,128.081813 364.029815,122.219988 366.66456,116.580379 C369.008478,111.68344 371.886732,108.444933 375.303936,106.860182 C369.787476,103.595946 367.031554,96.5224583 367.031554,85.6397204 C367.031554,76.7358748 370.252567,69.6389964 376.695746,64.3455766 C382.699224,59.3995155 390.167219,56.9247306 399.099729,56.9247306 C408.079557,56.9247306 415.620258,59.4474673 421.722986,64.4929409 C428.312732,69.8857732 431.607605,77.0329426 431.607605,85.9367882 C431.607605,90.1916404 430.87477,94.1728161 429.410254,97.8826543 C427.701074,102.434574 425.237133,105.550277 422.01612,107.232102 C426.017285,108.964217 429.264841,112.202723 431.754172,116.951129 C434.583955,122.245719 436,128.107544 436,134.536604 C436,144.973741 432.437382,153.234329 425.310993,159.31837 Z M399.246296,70.1325499 C394.754651,70.1325499 390.97276,71.4962546 387.897161,74.2224945 C384.676148,77.0493164 383.065065,80.6948289 383.065065,85.1555234 C383.065065,90.1144496 384.541122,94.1178469 387.49439,97.1668848 C390.447658,100.215923 394.4142,101.741026 399.392863,101.741026 C404.125709,101.741026 407.994156,100.266214 410.997049,97.3154187 C413.998788,94.3657932 415.500234,90.5354905 415.500234,85.8256802 C415.500234,81.0655788 413.973398,77.2598368 410.923188,74.4096238 C407.872978,71.5582412 403.979142,70.1325499 399.246296,70.1325499 Z M398.879302,112.722007 C392.875824,112.722007 388.031033,114.77926 384.347238,118.892596 C380.661135,123.005931 378.819237,128.133274 378.819237,134.278132 C378.819237,140.522403 380.686524,145.501211 384.41879,149.218067 C388.154518,152.934922 393.168958,154.792181 399.46557,154.792181 C405.615615,154.792181 410.568888,152.984044 414.328852,149.366601 C418.086508,145.750327 419.96649,140.867422 419.96649,134.722564 C419.96649,128.281808 418.026496,123.005931 414.145355,118.892596 C410.265368,114.77926 405.175914,112.722007 398.879302,112.722007 Z M0,19.2076523 L0,7.10542736e-15 L18.9533104,7.10542736e-15 L18.9533104,19.2076523 L0,19.2076523 Z M37.9077749,38.4153045 L37.9077749,19.2076523 L56.8610853,19.2076523 L56.8610853,38.4153045 L37.9077749,38.4153045 Z M18.9533104,57.6241263 L18.9533104,38.4164741 L37.9066208,38.4164741 L37.9066208,57.6241263 L18.9533104,57.6241263 Z"></path>
        </g>
    </g>
</svg>